<?xml version="1.0" encoding="UTF-8" standalone="no"?>
<!DOCTYPE svg PUBLIC "-//W3C//DTD SVG 1.1//EN" "http://www.w3.org/Graphics/SVG/1.1/DTD/svg11.dtd">
<svg width="100%" height="100%" viewBox="0 0 2225 597" version="1.1" xmlns="http://www.w3.org/2000/svg" xmlns:xlink="http://www.w3.org/1999/xlink" xml:space="preserve" xmlns:serif="http://www.serif.com/" style="fill-rule:evenodd;clip-rule:evenodd;stroke-linejoin:round;stroke-miterlimit:2;">
    <g transform="matrix(1,0,0,1,-3994.15,-4436.86)">
        <g transform="matrix(1,0,0,1,1999.53,1442.29)">
            <path d="M2617.22,3397.72C2615.02,3397.72 2613.22,3397.02 2611.82,3395.62C2610.42,3394.22 2609.72,3392.42 2609.72,3390.22L2609.72,3195.22C2609.72,3193.02 2610.42,3191.22 2611.82,3189.82C2613.22,3188.42 2615.02,3187.72 2617.22,3187.72L2650.52,3187.72C2652.72,3187.72 2654.52,3188.42 2655.92,3189.82C2657.32,3191.22 2658.02,3193.02 2658.02,3195.22L2658.02,3357.52L2751.02,3357.52C2753.22,3357.52 2755.02,3358.22 2756.42,3359.62C2757.82,3361.02 2758.52,3362.82 2758.52,3365.02L2758.52,3390.22C2758.52,3392.42 2757.82,3394.22 2756.42,3395.62C2755.02,3397.02 2753.22,3397.72 2751.02,3397.72L2617.22,3397.72Z" style="fill-rule:nonzero;"/>
            <path d="M2852.42,3400.72C2829.42,3400.72 2811.17,3394.32 2797.67,3381.52C2784.17,3368.72 2777.02,3350.12 2776.22,3325.72L2776.22,3312.82C2777.02,3297.42 2780.52,3284.17 2786.72,3273.07C2792.92,3261.97 2801.62,3253.47 2812.82,3247.57C2824.02,3241.67 2837.12,3238.72 2852.12,3238.72C2868.92,3238.72 2882.97,3242.17 2894.27,3249.07C2905.57,3255.97 2914.07,3265.37 2919.77,3277.27C2925.47,3289.17 2928.32,3302.82 2928.32,3318.22L2928.32,3325.12C2928.32,3327.12 2927.57,3328.82 2926.07,3330.22C2924.57,3331.62 2922.82,3332.32 2920.82,3332.32L2822.72,3332.32L2822.72,3334.72C2822.92,3341.12 2824.17,3346.97 2826.47,3352.27C2828.77,3357.57 2832.07,3361.82 2836.37,3365.02C2840.67,3368.22 2845.82,3369.82 2851.82,3369.82C2856.82,3369.82 2860.92,3369.12 2864.12,3367.72C2867.32,3366.32 2869.97,3364.62 2872.07,3362.62C2874.17,3360.62 2875.72,3358.92 2876.72,3357.52C2878.52,3355.52 2879.97,3354.27 2881.07,3353.77C2882.17,3353.27 2883.92,3353.02 2886.32,3353.02L2917.52,3353.02C2919.52,3353.02 2921.17,3353.57 2922.47,3354.67C2923.77,3355.77 2924.32,3357.32 2924.12,3359.32C2923.92,3362.52 2922.27,3366.47 2919.17,3371.17C2916.07,3375.87 2911.52,3380.47 2905.52,3384.97C2899.52,3389.47 2892.07,3393.22 2883.17,3396.22C2874.27,3399.22 2864.02,3400.72 2852.42,3400.72ZM2822.72,3305.02L2881.52,3305.02L2881.52,3304.42C2881.52,3297.22 2880.37,3290.97 2878.07,3285.67C2875.77,3280.37 2872.42,3276.22 2868.02,3273.22C2863.62,3270.22 2858.32,3268.72 2852.12,3268.72C2845.92,3268.72 2840.62,3270.22 2836.22,3273.22C2831.82,3276.22 2828.47,3280.37 2826.17,3285.67C2823.87,3290.97 2822.72,3297.22 2822.72,3304.42L2822.72,3305.02Z" style="fill-rule:nonzero;"/>
            <path d="M3027.62,3400.72C3013.02,3400.72 3000.17,3398.02 2989.07,3392.62C2977.97,3387.22 2969.22,3379.37 2962.82,3369.07C2956.42,3358.77 2952.92,3346.42 2952.32,3332.02C2952.12,3328.82 2952.02,3324.77 2952.02,3319.87C2952.02,3314.97 2952.12,3310.92 2952.32,3307.72C2952.92,3293.12 2956.37,3280.67 2962.67,3270.37C2968.97,3260.07 2977.72,3252.22 2988.92,3246.82C3000.12,3241.42 3013.02,3238.72 3027.62,3238.72C3041.02,3238.72 3052.42,3240.57 3061.82,3244.27C3071.22,3247.97 3078.92,3252.62 3084.92,3258.22C3090.92,3263.82 3095.37,3269.67 3098.27,3275.77C3101.17,3281.87 3102.72,3287.22 3102.92,3291.82C3103.12,3293.82 3102.47,3295.57 3100.97,3297.07C3099.47,3298.57 3097.72,3299.32 3095.72,3299.32L3063.62,3299.32C3061.62,3299.32 3060.07,3298.77 3058.97,3297.67C3057.87,3296.57 3056.82,3295.02 3055.82,3293.02C3053.02,3286.02 3049.42,3281.02 3045.02,3278.02C3040.62,3275.02 3035.12,3273.52 3028.52,3273.52C3019.52,3273.52 3012.42,3276.42 3007.22,3282.22C3002.02,3288.02 2999.22,3297.02 2998.82,3309.22C2998.62,3317.02 2998.62,3324.12 2998.82,3330.52C2999.42,3342.92 3002.27,3351.92 3007.37,3357.52C3012.47,3363.12 3019.52,3365.92 3028.52,3365.92C3035.52,3365.92 3041.12,3364.42 3045.32,3361.42C3049.52,3358.42 3053.02,3353.42 3055.82,3346.42C3056.62,3344.42 3057.62,3342.87 3058.82,3341.77C3060.02,3340.67 3061.62,3340.12 3063.62,3340.12L3095.72,3340.12C3097.72,3340.12 3099.47,3340.87 3100.97,3342.37C3102.47,3343.87 3103.12,3345.62 3102.92,3347.62C3102.72,3351.02 3101.77,3355.02 3100.07,3359.62C3098.37,3364.22 3095.67,3368.92 3091.97,3373.72C3088.27,3378.52 3083.52,3382.97 3077.72,3387.07C3071.92,3391.17 3064.87,3394.47 3056.57,3396.97C3048.27,3399.47 3038.62,3400.72 3027.62,3400.72Z" style="fill-rule:nonzero;"/>
            <path d="M3207.32,3397.72C3194.92,3397.72 3184.32,3395.67 3175.52,3391.57C3166.72,3387.47 3160.07,3381.12 3155.57,3372.52C3151.07,3363.92 3148.82,3353.12 3148.82,3340.12L3148.82,3277.12L3125.42,3277.12C3123.22,3277.12 3121.42,3276.42 3120.02,3275.02C3118.62,3273.62 3117.92,3271.82 3117.92,3269.62L3117.92,3249.22C3117.92,3247.02 3118.62,3245.22 3120.02,3243.82C3121.42,3242.42 3123.22,3241.72 3125.42,3241.72L3148.82,3241.72L3148.82,3192.22C3148.82,3190.02 3149.57,3188.22 3151.07,3186.82C3152.57,3185.42 3154.32,3184.72 3156.32,3184.72L3185.72,3184.72C3187.92,3184.72 3189.72,3185.42 3191.12,3186.82C3192.52,3188.22 3193.22,3190.02 3193.22,3192.22L3193.22,3241.72L3230.72,3241.72C3232.72,3241.72 3234.42,3242.42 3235.82,3243.82C3237.22,3245.22 3237.92,3247.02 3237.92,3249.22L3237.92,3269.62C3237.92,3271.82 3237.22,3273.62 3235.82,3275.02C3234.42,3276.42 3232.72,3277.12 3230.72,3277.12L3193.22,3277.12L3193.22,3336.52C3193.22,3344.12 3194.57,3350.07 3197.27,3354.37C3199.97,3358.67 3204.72,3360.82 3211.52,3360.82L3233.42,3360.82C3235.42,3360.82 3237.12,3361.52 3238.52,3362.92C3239.92,3364.32 3240.62,3366.02 3240.62,3368.02L3240.62,3390.22C3240.62,3392.42 3239.92,3394.22 3238.52,3395.62C3237.12,3397.02 3235.42,3397.72 3233.42,3397.72L3207.32,3397.72Z" style="fill-rule:nonzero;"/>
            <path d="M3324.02,3400.72C3312.42,3400.72 3302.17,3398.07 3293.27,3392.77C3284.37,3387.47 3277.47,3379.77 3272.57,3369.67C3267.67,3359.57 3265.22,3347.32 3265.22,3332.92L3265.22,3249.22C3265.22,3247.02 3265.92,3245.22 3267.32,3243.82C3268.72,3242.42 3270.42,3241.72 3272.42,3241.72L3304.22,3241.72C3306.42,3241.72 3308.22,3242.42 3309.62,3243.82C3311.02,3245.22 3311.72,3247.02 3311.72,3249.22L3311.72,3331.12C3311.72,3353.52 3321.52,3364.72 3341.12,3364.72C3350.52,3364.72 3357.97,3361.77 3363.47,3355.87C3368.97,3349.97 3371.72,3341.72 3371.72,3331.12L3371.72,3249.22C3371.72,3247.02 3372.42,3245.22 3373.82,3243.82C3375.22,3242.42 3377.02,3241.72 3379.22,3241.72L3411.02,3241.72C3413.02,3241.72 3414.72,3242.42 3416.12,3243.82C3417.52,3245.22 3418.22,3247.02 3418.22,3249.22L3418.22,3390.22C3418.22,3392.42 3417.52,3394.22 3416.12,3395.62C3414.72,3397.02 3413.02,3397.72 3411.02,3397.72L3381.62,3397.72C3379.42,3397.72 3377.62,3397.02 3376.22,3395.62C3374.82,3394.22 3374.12,3392.42 3374.12,3390.22L3374.12,3378.52C3368.92,3385.72 3362.22,3391.22 3354.02,3395.02C3345.82,3398.82 3335.82,3400.72 3324.02,3400.72Z" style="fill-rule:nonzero;"/>
            <path d="M3463.22,3397.72C3461.22,3397.72 3459.52,3397.02 3458.12,3395.62C3456.72,3394.22 3456.02,3392.42 3456.02,3390.22L3456.02,3249.22C3456.02,3247.22 3456.72,3245.47 3458.12,3243.97C3459.52,3242.47 3461.22,3241.72 3463.22,3241.72L3492.62,3241.72C3494.62,3241.72 3496.37,3242.47 3497.87,3243.97C3499.37,3245.47 3500.12,3247.22 3500.12,3249.22L3500.12,3261.22C3505.12,3255.02 3511.27,3250.22 3518.57,3246.82C3525.87,3243.42 3534.32,3241.72 3543.92,3241.72L3556.82,3241.72C3558.82,3241.72 3560.52,3242.42 3561.92,3243.82C3563.32,3245.22 3564.02,3247.02 3564.02,3249.22L3564.02,3275.02C3564.02,3277.22 3563.32,3279.02 3561.92,3280.42C3560.52,3281.82 3558.82,3282.52 3556.82,3282.52L3530.42,3282.52C3521.62,3282.52 3514.72,3284.97 3509.72,3289.87C3504.72,3294.77 3502.22,3301.72 3502.22,3310.72L3502.22,3390.22C3502.22,3392.42 3501.52,3394.22 3500.12,3395.62C3498.72,3397.02 3496.92,3397.72 3494.72,3397.72L3463.22,3397.72Z" style="fill-rule:nonzero;"/>
            <path d="M3656.12,3400.72C3633.12,3400.72 3614.87,3394.32 3601.37,3381.52C3587.87,3368.72 3580.72,3350.12 3579.92,3325.72L3579.92,3312.82C3580.72,3297.42 3584.22,3284.17 3590.42,3273.07C3596.62,3261.97 3605.32,3253.47 3616.52,3247.57C3627.72,3241.67 3640.82,3238.72 3655.82,3238.72C3672.62,3238.72 3686.67,3242.17 3697.97,3249.07C3709.27,3255.97 3717.77,3265.37 3723.47,3277.27C3729.17,3289.17 3732.02,3302.82 3732.02,3318.22L3732.02,3325.12C3732.02,3327.12 3731.27,3328.82 3729.77,3330.22C3728.27,3331.62 3726.52,3332.32 3724.52,3332.32L3626.42,3332.32L3626.42,3334.72C3626.62,3341.12 3627.87,3346.97 3630.17,3352.27C3632.47,3357.57 3635.77,3361.82 3640.07,3365.02C3644.37,3368.22 3649.52,3369.82 3655.52,3369.82C3660.52,3369.82 3664.62,3369.12 3667.82,3367.72C3671.02,3366.32 3673.67,3364.62 3675.77,3362.62C3677.87,3360.62 3679.42,3358.92 3680.42,3357.52C3682.22,3355.52 3683.67,3354.27 3684.77,3353.77C3685.87,3353.27 3687.62,3353.02 3690.02,3353.02L3721.22,3353.02C3723.22,3353.02 3724.87,3353.57 3726.17,3354.67C3727.47,3355.77 3728.02,3357.32 3727.82,3359.32C3727.62,3362.52 3725.97,3366.47 3722.87,3371.17C3719.77,3375.87 3715.22,3380.47 3709.22,3384.97C3703.22,3389.47 3695.77,3393.22 3686.87,3396.22C3677.97,3399.22 3667.72,3400.72 3656.12,3400.72ZM3626.42,3305.02L3685.22,3305.02L3685.22,3304.42C3685.22,3297.22 3684.07,3290.97 3681.77,3285.67C3679.47,3280.37 3676.12,3276.22 3671.72,3273.22C3667.32,3270.22 3662.02,3268.72 3655.82,3268.72C3649.62,3268.72 3644.32,3270.22 3639.92,3273.22C3635.52,3276.22 3632.17,3280.37 3629.87,3285.67C3627.57,3290.97 3626.42,3297.22 3626.42,3304.42L3626.42,3305.02Z" style="fill-rule:nonzero;"/>
            <path d="M3860.72,3397.72C3858.72,3397.72 3857.02,3397.02 3855.62,3395.62C3854.22,3394.22 3853.52,3392.42 3853.52,3390.22L3853.52,3354.22L3759.02,3354.22C3757.02,3354.22 3755.32,3353.52 3753.92,3352.12C3752.52,3350.72 3751.82,3348.92 3751.82,3346.72L3751.82,3322.42C3751.82,3321.02 3752.12,3319.52 3752.72,3317.92C3753.32,3316.32 3754.12,3314.82 3755.12,3313.42L3843.02,3192.82C3845.62,3189.42 3849.32,3187.72 3854.12,3187.72L3892.22,3187.72C3894.22,3187.72 3895.92,3188.42 3897.32,3189.82C3898.72,3191.22 3899.42,3193.02 3899.42,3195.22L3899.42,3314.32L3926.12,3314.32C3928.52,3314.32 3930.37,3315.02 3931.67,3316.42C3932.97,3317.82 3933.62,3319.52 3933.62,3321.52L3933.62,3346.72C3933.62,3348.92 3932.92,3350.72 3931.52,3352.12C3930.12,3353.52 3928.42,3354.22 3926.42,3354.22L3899.42,3354.22L3899.42,3390.22C3899.42,3392.42 3898.72,3394.22 3897.32,3395.62C3895.92,3397.02 3894.22,3397.72 3892.22,3397.72L3860.72,3397.72ZM3798.32,3315.82L3854.42,3315.82L3854.42,3236.92L3798.32,3315.82Z" style="fill:rgb(13,110,253);fill-rule:nonzero;"/>
            <path d="M4051.22,3400.72C4033.62,3400.72 4018.22,3397.77 4005.02,3391.87C3991.82,3385.97 3981.62,3376.87 3974.42,3364.57C3967.22,3352.27 3963.62,3336.62 3963.62,3317.62L3963.62,3195.22C3963.62,3193.02 3964.32,3191.22 3965.72,3189.82C3967.12,3188.42 3968.92,3187.72 3971.12,3187.72L4003.82,3187.72C4006.02,3187.72 4007.82,3188.42 4009.22,3189.82C4010.62,3191.22 4011.32,3193.02 4011.32,3195.22L4011.32,3317.32C4011.32,3332.12 4014.82,3343.12 4021.82,3350.32C4028.82,3357.52 4038.62,3361.12 4051.22,3361.12C4063.62,3361.12 4073.32,3357.52 4080.32,3350.32C4087.32,3343.12 4090.82,3332.12 4090.82,3317.32L4090.82,3195.22C4090.82,3193.02 4091.57,3191.22 4093.07,3189.82C4094.57,3188.42 4096.32,3187.72 4098.32,3187.72L4131.32,3187.72C4133.32,3187.72 4135.02,3188.42 4136.42,3189.82C4137.82,3191.22 4138.52,3193.02 4138.52,3195.22L4138.52,3317.62C4138.52,3336.62 4134.92,3352.27 4127.72,3364.57C4120.52,3376.87 4110.42,3385.97 4097.42,3391.87C4084.42,3397.77 4069.02,3400.72 4051.22,3400.72Z" style="fill-rule:nonzero;"/>
        </g>
        <g transform="matrix(0.823223,0,0,0.823223,2562.28,2303.81)">
            <circle cx="2094.16" cy="2953.26" r="263.98" style="fill:rgb(13,110,253);"/>
        </g>
        <g transform="matrix(2.62866e-16,4.29292,-5.40246,3.30806e-16,18738,-7279)">
            <path d="M2831.85,2656.34C2825.28,2657.49 2818.6,2657.45 2811.8,2656.34L2811.8,2686.69L2831.85,2686.69L2831.85,2656.34Z" style="fill:rgb(206,206,206);"/>
        </g>
        <g transform="matrix(2.55889e-16,4.17898,-5.31079,3.25192e-16,18509.7,-6954.71)">
            <path d="M2828.48,2683.97C2829.96,2682.39 2835.03,2681.34 2834.22,2683.45C2833.4,2685.57 2831.93,2687.29 2829.81,2688.62C2827.69,2689.95 2824.9,2690.61 2821.45,2690.61C2818.1,2690.61 2815.35,2690.03 2813.22,2688.88C2811.09,2687.72 2809.04,2685.96 2808.13,2683.77C2807.22,2681.58 2811.76,2680.16 2812.02,2681.69C2812.34,2683.57 2813.86,2684.82 2815.61,2685.5C2817.17,2686.1 2819,2686.34 2821.03,2686.34C2824.52,2686.34 2827,2685.55 2828.48,2683.97Z" style="fill-opacity:0.23;fill-rule:nonzero;"/>
        </g>
        <g transform="matrix(1,0,0,1,523.929,32.2291)">
            <path d="M3675.22,4821.94C3674.8,4821.03 3674.47,4820.06 3674.26,4819.03L3633.67,4627.21C3633.65,4627.15 3633.64,4627.09 3633.63,4627.03C3625,4583.37 3644.72,4559.91 3654.27,4551.68C3658.69,4547.87 3662.41,4546.41 3663.67,4546.06C3667.37,4545.05 3671.31,4545.59 3674.59,4547.58C3677.87,4549.56 3680.18,4552.81 3680.99,4556.55L3720.44,4739.33L3873.08,4739.85C3880.76,4739.88 3886.98,4746.14 3886.95,4753.82C3886.93,4761.51 3880.67,4767.72 3872.98,4767.7L3726.15,4767.19C3725.69,4767.33 3725.21,4767.43 3724.7,4767.5C3716.2,4768.62 3710.57,4774.08 3707.5,4780.33C3704.55,4786.34 3703.47,4793.4 3703.47,4801.25C3703.47,4814.27 3706.94,4823.66 3714.45,4829.2C3722.12,4834.86 3736.67,4837.51 3757.99,4837.7C3758.6,4837.62 3759.22,4837.58 3759.85,4837.58L3873.03,4837.58C3880.72,4837.58 3886.95,4843.82 3886.95,4851.5C3886.95,4859.19 3880.72,4865.42 3873.03,4865.42L3759.85,4865.42C3759.48,4865.42 3759.11,4865.41 3758.74,4865.38C3739.91,4865.28 3724.89,4863.51 3713.69,4860.11C3701.65,4856.47 3691.87,4849.88 3684.32,4840.38C3680.16,4835.13 3677.11,4828.99 3675.22,4821.94Z" style="fill-rule:nonzero;"/>
        </g>
        <g transform="matrix(0.537113,0,0.116164,0.537113,2179.07,2392.6)">
            <path d="M3058.23,4348.76C3056.23,4348.76 3054.53,4348.06 3053.13,4346.66C3051.73,4345.26 3051.03,4343.56 3051.03,4341.56L3051.03,4303.16L2955.93,4303.16C2953.73,4303.16 2951.98,4302.46 2950.68,4301.06C2949.38,4299.66 2948.73,4297.96 2948.73,4295.96L2948.73,4275.56C2948.73,4274.36 2948.98,4272.91 2949.48,4271.21C2949.98,4269.51 2950.83,4267.96 2952.03,4266.56L3040.53,4143.86C3043.13,4140.46 3046.83,4138.76 3051.63,4138.76L3084.33,4138.76C3086.33,4138.76 3088.03,4139.46 3089.43,4140.86C3090.83,4142.26 3091.53,4143.96 3091.53,4145.96L3091.53,4267.76L3118.23,4267.76C3120.63,4267.76 3122.48,4268.41 3123.78,4269.71C3125.08,4271.01 3125.73,4272.76 3125.73,4274.96L3125.73,4295.96C3125.73,4297.96 3125.03,4299.66 3123.63,4301.06C3122.23,4302.46 3120.53,4303.16 3118.53,4303.16L3091.53,4303.16L3091.53,4341.56C3091.53,4343.56 3090.83,4345.26 3089.43,4346.66C3088.03,4348.06 3086.33,4348.76 3084.33,4348.76L3058.23,4348.76ZM2990.43,4268.96L3051.93,4268.96L3051.93,4182.26L2990.43,4268.96Z" style="fill:rgb(240,240,240);fill-rule:nonzero;"/>
        </g>
    </g>
</svg>
