<?xml version="1.0" encoding="UTF-8" standalone="no"?>
<!DOCTYPE svg PUBLIC "-//W3C//DTD SVG 1.1//EN" "http://www.w3.org/Graphics/SVG/1.1/DTD/svg11.dtd">
<svg width="100%" height="100%" viewBox="0 0 439 439" version="1.1" xmlns="http://www.w3.org/2000/svg" xmlns:xlink="http://www.w3.org/1999/xlink" xml:space="preserve" xmlns:serif="http://www.serif.com/" style="fill-rule:evenodd;clip-rule:evenodd;stroke-linejoin:round;stroke-miterlimit:2;">
    <g transform="matrix(1,0,0,1,-4066.92,-4515.69)">
        <g transform="matrix(0.823223,0,0,0.823223,2562.28,2303.81)">
            <circle cx="2094.16" cy="2953.26" r="263.98" style="fill:rgb(13,110,253);"/>
        </g>
        <g transform="matrix(2.62866e-16,4.29292,-5.40246,3.30806e-16,18738,-7279)">
            <path d="M2831.85,2656.34C2825.28,2657.49 2818.6,2657.45 2811.8,2656.34L2811.8,2686.69L2831.85,2686.69L2831.85,2656.34Z" style="fill:rgb(206,206,206);"/>
        </g>
        <g transform="matrix(2.55889e-16,4.17898,-5.31079,3.25192e-16,18509.7,-6954.71)">
            <path d="M2828.48,2683.97C2829.96,2682.39 2835.03,2681.34 2834.22,2683.45C2833.4,2685.57 2831.93,2687.29 2829.81,2688.62C2827.69,2689.95 2824.9,2690.61 2821.45,2690.61C2818.1,2690.61 2815.35,2690.03 2813.22,2688.88C2811.09,2687.72 2809.04,2685.96 2808.13,2683.77C2807.22,2681.58 2811.76,2680.16 2812.02,2681.69C2812.34,2683.57 2813.86,2684.82 2815.61,2685.5C2817.17,2686.1 2819,2686.34 2821.03,2686.34C2824.52,2686.34 2827,2685.55 2828.48,2683.97Z" style="fill-opacity:0.23;fill-rule:nonzero;"/>
        </g>
        <g transform="matrix(1,0,0,1,523.929,32.2291)">
            <path d="M3675.22,4821.94C3674.8,4821.03 3674.47,4820.06 3674.26,4819.03L3633.67,4627.21C3633.65,4627.15 3633.64,4627.09 3633.63,4627.03C3625,4583.37 3644.72,4559.91 3654.27,4551.68C3658.69,4547.87 3662.41,4546.41 3663.67,4546.06C3667.37,4545.05 3671.31,4545.59 3674.59,4547.58C3677.87,4549.56 3680.18,4552.81 3680.99,4556.55L3720.44,4739.33L3873.08,4739.85C3880.76,4739.88 3886.98,4746.14 3886.95,4753.82C3886.93,4761.51 3880.67,4767.72 3872.98,4767.7L3726.15,4767.19C3725.69,4767.33 3725.21,4767.43 3724.7,4767.5C3716.2,4768.62 3710.57,4774.08 3707.5,4780.33C3704.55,4786.34 3703.47,4793.4 3703.47,4801.25C3703.47,4814.27 3706.94,4823.66 3714.45,4829.2C3722.12,4834.86 3736.67,4837.51 3757.99,4837.7C3758.6,4837.62 3759.22,4837.58 3759.85,4837.58L3873.03,4837.58C3880.72,4837.58 3886.95,4843.82 3886.95,4851.5C3886.95,4859.19 3880.72,4865.42 3873.03,4865.42L3759.85,4865.42C3759.48,4865.42 3759.11,4865.41 3758.74,4865.38C3739.91,4865.28 3724.89,4863.51 3713.69,4860.11C3701.65,4856.47 3691.87,4849.88 3684.32,4840.38C3680.16,4835.13 3677.11,4828.99 3675.22,4821.94Z" style="fill-rule:nonzero;"/>
        </g>
        <g transform="matrix(0.537113,0,0.116164,0.537113,2179.07,2392.6)">
            <path d="M3058.23,4348.76C3056.23,4348.76 3054.53,4348.06 3053.13,4346.66C3051.73,4345.26 3051.03,4343.56 3051.03,4341.56L3051.03,4303.16L2955.93,4303.16C2953.73,4303.16 2951.98,4302.46 2950.68,4301.06C2949.38,4299.66 2948.73,4297.96 2948.73,4295.96L2948.73,4275.56C2948.73,4274.36 2948.98,4272.91 2949.48,4271.21C2949.98,4269.51 2950.83,4267.96 2952.03,4266.56L3040.53,4143.86C3043.13,4140.46 3046.83,4138.76 3051.63,4138.76L3084.33,4138.76C3086.33,4138.76 3088.03,4139.46 3089.43,4140.86C3090.83,4142.26 3091.53,4143.96 3091.53,4145.96L3091.53,4267.76L3118.23,4267.76C3120.63,4267.76 3122.48,4268.41 3123.78,4269.71C3125.08,4271.01 3125.73,4272.76 3125.73,4274.96L3125.73,4295.96C3125.73,4297.96 3125.03,4299.66 3123.63,4301.06C3122.23,4302.46 3120.53,4303.16 3118.53,4303.16L3091.53,4303.16L3091.53,4341.56C3091.53,4343.56 3090.83,4345.26 3089.43,4346.66C3088.03,4348.06 3086.33,4348.76 3084.33,4348.76L3058.23,4348.76ZM2990.43,4268.96L3051.93,4268.96L3051.93,4182.26L2990.43,4268.96Z" style="fill:rgb(240,240,240);fill-rule:nonzero;"/>
        </g>
    </g>
</svg>
